<?xml version="1.0" encoding="UTF-8" standalone="no"?>
<!DOCTYPE svg PUBLIC "-//W3C//DTD SVG 1.1//EN" "http://www.w3.org/Graphics/SVG/1.1/DTD/svg11.dtd">
<svg version="1.1" xmlns="http://www.w3.org/2000/svg" xmlns:xlink="http://www.w3.org/1999/xlink" preserveAspectRatio="xMidYMid meet" viewBox="0 0 640 640" width="640" height="640"><defs><path d="M23.37 29.95C23.44 30.08 40.96 19.44 41.01 19.53C47.36 30.79 14.13 23.58 20.48 34.85C20.73 35.3 37.26 21.05 38.9 23.96C41 27.68 25.54 26.14 28.68 31.7C28.96 32.2 34.91 22.53 37.23 26.65C42.53 36.05 15.57 31.07 20.87 40.47C25.37 48.44 42.32 25.21 43.41 27.14C47.65 34.66 23.65 34.33 27.54 41.23C34.23 53.1 38.79 18.52 45.58 30.56C50.49 39.27 11.28 35.57 19.36 49.9C28.03 65.27 44.02 14.83 52.69 30.2C58.79 41.02 27.58 35.04 33.68 45.86C37.26 52.21 59.64 9.51 68.52 25.26C77.17 40.6 36.93 40.85 39.24 44.94C40.76 47.63 71.02 13.88 76.21 23.09C84.02 36.93 29.63 48.56 33.19 54.88C47.14 79.62 61.1 2.7 76.2 29.46C86.6 47.92 38.39 47.53 41.37 52.83C48.71 65.84 84.04 3.19 94.36 21.51C113.97 56.27 9.75 31.63 29.36 66.4C46.61 97 67.67 -2.61 87.28 32.16C108.18 69.22 9.25 64.83 16.58 77.82C38.08 115.94 83.55 -12.6 105.04 25.53C127.06 64.58 8.59 34.69 30.61 73.74C54.16 115.5 118.32 10.59 123.09 19.06C123.95 20.59 19.56 68.65 26.55 81.04C51.99 126.16 80.65 -11.1 106.09 34.02C125.44 68.33 20.61 40.86 39.96 75.18C45.49 85 109.57 10.36 119.58 28.11C142.68 69.07 17.99 37.04 41.09 78C58.95 109.68 106.77 -20.97 132.21 24.14C150.2 56.04 45.05 75.01 46.37 77.36C54.96 92.59 136.54 19.08 138.65 22.81C142.28 29.25 37.59 74.55 41.29 81.12C59.38 113.19 114.88 -10.68 135.31 25.54C159.73 68.86 26.61 32.84 51.03 76.16C67.82 105.93 111.33 -19.64 136.77 25.48C161.61 69.53 48.97 73.14 52.35 79.14C67.4 105.83 131.85 -14.05 151.39 20.59C167.14 48.53 47.92 28.93 71.34 70.47C96.79 115.58 121.18 -19.14 146.62 25.97C172.94 72.66 40.05 52.5 57.24 82.99C79.82 123.02 154.77 2.62 164.38 19.66C173.35 35.56 53.41 31.8 78.96 77.11C104.4 122.23 137.61 -11.24 160.31 29.02C174.01 53.31 66.09 49.55 82 77.75C93.76 98.62 131.25 -11.52 156.69 33.6C177.41 70.35 67.39 44.98 85.28 76.7C110.72 121.82 139.11 -15.27 164.55 29.85C171.6 42.35 73 36.3 93.61 72.84C119.05 117.96 133.28 -10.76 158.72 34.36C181.54 74.84 58.91 44.17 81.74 84.65C107.18 129.77 147.2 -14.14 172.61 30.93C176.92 38.58 101.82 56.61 111.43 73.65C128.1 103.21 192.24 6.13 200.59 20.94C231.59 75.91 62.98 30.77 93.98 85.74C105.48 106.12 154.51 -10.2 179.95 34.92C198.41 67.66 92.3 62.51 103.39 82.18C116.96 106.23 161.63 -12.4 187.07 32.71C206.57 67.28 112.97 60.55 122.6 77.62C144.6 116.64 187.64 -20.98 213.08 24.13C236.5 65.68 110.03 33.17 133.46 74.72C158.9 119.83 223.55 11.86 227.61 19.06C247.54 54.4 105.42 31.71 133.45 81.43C158.89 126.55 196.89 -16.22 222.33 28.9C228.5 39.85 125.3 36.07 147.19 74.88C149.68 79.31 207.31 -20.81 232.75 24.3C259.78 72.22 115.77 38.02 141.2 83.13C143.16 86.61 219.36 -23.22 244.8 21.9C266.96 61.2 147.73 31.13 169.89 70.43C192.3 110.18 229.51 -24.97 254.95 20.15C258.57 26.56 145.85 31.19 170.85 75.52C185.71 101.88 221.35 -14.48 246.79 30.63C266.74 66.03 162.71 44.87 179.22 74.16C200.77 112.38 241.36 25.79 246.27 34.52C262.11 62.61 154.94 45.7 176.14 83.29C201.58 128.41 264.38 25.2 266.89 29.65C287.7 66.55 174.88 36.91 195.7 73.82C221.14 118.94 271.69 0.09 283.87 21.7C306.7 62.19 196.03 52.69 207.17 72.45C232.61 117.57 252.01 -14.21 277.45 30.91C296.49 64.68 204.04 56.68 212.19 71.12C236.76 114.69 273.47 -25.26 298.91 19.86C327.32 70.23 200.43 77.73 202.58 81.53C228.02 126.65 274.3 -21.02 299.74 24.1C326.33 71.25 182.05 33.14 208.64 80.29C234.08 125.41 299.35 0.95 310.23 20.24C337.07 67.84 193.43 32.66 220.27 80.26C240.73 116.54 276.37 -13.05 301.81 32.07C310.04 46.67 218.23 38.13 237.06 71.54C262.51 116.66 274.77 -10.91 300.21 34.21C320.62 70.39 210.57 42.26 230.98 78.44C243.05 99.85 321.42 5 329.87 19.98C359.51 72.54 200.45 32.99 230.1 85.56C236.44 96.81 307.22 7 321.16 31.73C328.56 44.86 244.94 41.23 262.65 72.64C263.76 74.6 313.46 -17.55 338.9 27.56C343.91 36.44 248.6 37.42 269.39 74.28C294.83 119.4 337.55 -26.17 362.99 18.95C376.74 43.33 244.47 58.17 259.25 84.37C284.69 129.48 343.33 6.25 355.34 27.56C375.88 63.98 257.99 38.32 280.42 78.1C305.86 123.21 340.14 -17.36 365.58 27.76C390.73 72.36 259.91 46.05 281.34 84.07C306.78 129.18 359.78 -22.45 385.22 22.66C401.95 52.32 274.57 63.04 287.57 86.09C313.01 131.21 364.55 -19.57 389.99 25.55C391.81 28.78 261.28 35.16 290.32 86.66C315.76 131.78 373.79 14.93 383.26 31.72C406.39 72.75 293.65 62.23 304.41 81.3C316.85 103.37 382.54 -20.42 406.03 21.23C430.27 64.22 300.03 31.63 324.27 74.62C330.06 84.89 389.11 -23.87 414.55 21.25C444.36 74.1 305.84 72.52 312.24 83.87C314.98 88.73 385.9 -19.83 411.34 25.29C436.53 69.96 302.02 37.37 327.2 82.04C342.32 108.83 394.07 -4.59 413.99 30.73C423.21 47.08 329.27 53.09 342.59 76.72C368.03 121.84 408.6 -22.45 434.04 22.67C460.75 70.04 324.42 46.78 344.33 82.1C346.11 85.25 418.25 3.45 433.04 29.67C454.82 68.29 345.05 51.64 360.67 79.34C380.25 114.07 424.69 -1.28 442.78 30.8C448.38 40.73 377.83 72.15 379.46 75.04C404.9 120.16 429.46 -14.67 454.9 30.45C462.83 44.51 365.02 84.39 365.42 85.1C390.86 130.21 426.88 -11.39 452.32 33.72C467.26 60.21 378.72 71.81 383.23 79.81C408.67 124.93 460.08 -25.77 485.52 19.34C512.91 67.91 381.39 58.77 393.26 79.81C418.7 124.93 469.3 -25.29 494.74 19.83C506.42 40.54 377.6 62.66 390.85 86.16C416.29 131.27 456.77 -12.96 482.21 32.15C489.76 45.55 373.06 41.54 397.85 85.5C404.04 96.49 484.2 33.39 484.66 34.19C496.89 55.88 410.84 43.91 428.07 74.47C445.56 105.49 495.44 29.67 497.54 33.4C510.1 55.68 405.89 59.96 418.97 83.17C444.42 128.29 477.79 -11.75 503.23 33.36C511.15 47.4 394.06 43.04 418.89 87.08C438.16 121.25 494.71 -17.89 520.15 27.22C546.96 74.77 421.14 71.26 427.64 82.78C435.73 97.13 494.72 -17.02 520.16 28.1C520.88 29.39 428.62 58.32 441.28 80.76C466.72 125.88 529.89 20.56 533.2 26.43C561.24 76.15 408.9 35.64 436.94 85.37C462.38 130.48 517.88 -22.63 543.32 22.48C567.12 64.68 439.17 32.5 462.96 74.7C488.4 119.81 550 10.41 555.43 20.03C579.54 62.8 449.46 29.58 472.73 70.85C477.17 78.72 530.73 -23.59 556.17 21.52C578.8 61.65 456.77 30.49 479.4 70.62C504.84 115.73 530.13 -19.52 555.57 25.59C568.67 48.83 459.71 32.45 481.3 70.73C506.74 115.85 530.48 12.09 542.99 34.27C565.38 73.98 445.27 44.18 467.66 83.89C472.47 92.43 549.13 -6.44 566.97 25.19C591.66 68.98 446.83 35.93 474.17 84.41C486.37 106.04 538.88 -14.01 564.32 31.11C582.93 64.11 482.19 37.82 500.79 70.81C526.23 115.93 551.65 15.22 562.45 34.37C583.02 70.86 476.58 50.3 493.89 80.99C497.63 87.61 563.63 -15.97 587.2 25.83C601.25 50.74 470.47 35.03 496.87 81.85C518.02 119.35 586.81 21.48 589.86 26.89C616.56 74.25 473.78 39.44 500.49 86.8C518.47 118.7 571.98 -15.61 597.42 29.5C615.73 61.97 517.89 38.17 536.2 70.64C555.95 105.67 582.97 -1.06 601.6 31.98C603.78 35.85 506.59 52.87 522.58 81.22C548.02 126.33 586.21 -6.89 607.56 30.98C631.89 74.11 502.52 43.92 523.65 81.4C549.09 126.52 606.9 28.09 608.64 31.16C613.38 39.57 528.5 38.7 546.78 71.13C558.18 91.34 602.08 -5.13 620.5 27.55C625.33 36.1 517.64 49.77 535.26 81.01C560.7 126.12 618.96 13.88 626.42 27.11C643.17 56.82 555.97 59.14 562.91 71.44C587.81 115.59 629.65 -15.3 649.65 20.17C656.88 32.99 527.26 30.9 555.08 80.24C577.94 120.77 606.64 -4.29 629.5 36.25C645.23 64.13 559.8 43.55 575.81 71.93C592.46 101.47 607.71 3.58 628.64 40.7C642.78 65.78 571.91 55.5 582.28 73.87C600.39 106 625.52 43.52 627.55 47.11C633.65 57.94 563.9 52.5 578.34 78.11C595.53 108.58 639.72 19.24 649.27 36.18C668.32 69.98 569.74 50.88 585.96 79.64C600.2 104.89 614.27 29.24 628.51 54.49C637.89 71.12 595.71 72.21 599.31 78.59C600.56 80.81 631.44 38.45 640.38 54.31C649.5 70.47 603.21 62.58 611 76.38C619.6 91.64 616.19 52.97 624.8 68.22C628.42 74.66 610.91 72.29 614.54 78.72C619.57 87.65 630.4 54.13 636.83 65.54C640.39 71.85 622.4 68.63 625.95 74.94C630.94 83.79 639.49 60.4 642.26 65.3C645.49 71.04 607.38 72.79 614.18 84.85C617.73 91.14 626.94 68.9 630.49 75.2C632.33 78.45 625.24 79.71 626.07 81.19C626.98 82.79 633.7 75.38 634.25 76.35C635.16 77.96 636.47 76.63 637.37 78.24C637.39 78.27 650.9 70.05 650.98 70.2" id="fbz5BcW8l"></path><path d="M23.37 561.48C23.44 561.6 40.96 550.96 41.01 551.05C47.36 562.31 14.13 555.11 20.48 566.37C20.73 566.83 37.26 552.58 38.9 555.48C41 559.2 25.54 557.67 28.68 563.23C28.96 563.73 34.91 554.06 37.23 558.17C42.53 567.57 15.57 562.59 20.87 571.99C25.37 579.97 42.32 556.73 43.41 558.67C47.65 566.18 23.65 565.86 27.54 572.76C34.23 584.63 38.79 550.04 45.58 562.09C50.49 570.79 11.28 567.1 19.36 581.43C28.03 596.8 44.02 546.36 52.69 561.73C58.79 572.54 27.58 566.57 33.68 577.38C37.26 583.74 59.64 541.03 68.52 556.79C77.17 572.12 36.93 572.38 39.24 576.46C40.76 579.15 71.02 545.4 76.21 554.61C84.02 568.46 29.63 580.09 33.19 586.41C47.14 611.15 61.1 534.22 76.2 560.99C86.6 579.45 38.39 579.05 41.37 584.35C48.71 597.36 84.04 534.72 94.36 553.03C113.97 587.79 9.75 563.16 29.36 597.92C46.61 628.52 67.67 528.91 87.28 563.68C108.18 600.74 9.25 596.35 16.58 609.35C38.08 647.47 83.55 518.93 105.04 557.05C127.06 596.1 8.59 566.21 30.61 605.26C54.16 647.03 118.32 542.12 123.1 550.59C123.95 552.11 19.56 600.17 26.55 612.57C51.99 657.68 80.65 520.43 106.1 565.55C125.44 599.86 20.61 572.39 39.96 606.7C45.49 616.52 109.57 541.88 119.58 559.63C142.68 600.6 17.99 568.57 41.09 609.53C58.95 641.21 106.77 510.55 132.21 555.67C150.2 587.57 45.05 606.54 46.37 608.89C54.96 624.12 136.54 550.6 138.65 554.34C142.28 560.77 37.59 606.07 41.29 612.64C59.38 644.72 114.88 520.85 135.31 557.07C159.73 600.38 26.61 564.37 51.03 607.68C67.82 637.45 111.33 511.88 136.77 557C161.61 601.05 48.97 604.67 52.35 610.66C67.4 637.35 131.85 517.47 151.39 552.12C167.14 580.05 47.92 560.45 71.35 601.99C96.79 647.11 121.18 512.38 146.62 557.5C172.94 604.18 40.05 584.03 57.24 614.52C79.82 654.54 154.77 534.14 164.38 551.19C173.35 567.09 53.41 563.33 78.96 608.64C104.4 653.75 137.61 520.28 160.31 560.55C174.01 584.83 66.09 581.07 82 609.28C93.76 630.15 131.25 520.01 156.69 565.13C177.41 601.88 67.39 576.51 85.28 608.23C110.72 653.34 139.11 516.26 164.55 561.37C171.6 573.87 73 567.82 93.61 604.37C119.05 649.49 133.28 520.77 158.72 565.89C181.54 606.37 58.91 575.69 81.74 616.18C107.18 661.29 147.2 517.38 172.61 562.46C176.93 570.1 101.82 588.13 111.43 605.17C128.1 634.73 192.24 537.65 200.59 552.46C231.59 607.43 62.99 562.29 93.98 617.26C105.48 637.65 154.51 521.33 179.95 566.44C198.41 599.18 92.31 594.04 103.39 613.7C116.96 637.75 161.63 519.12 187.07 564.24C206.57 598.81 112.97 592.07 122.6 609.14C144.6 648.17 187.64 510.54 213.08 555.66C236.5 597.2 110.03 564.7 133.46 606.24C158.9 651.36 223.55 543.38 227.61 550.58C247.54 585.93 105.42 563.24 133.45 612.96C158.89 658.07 196.89 515.3 222.33 560.42C228.5 571.37 125.31 567.6 147.19 606.41C149.68 610.83 207.31 510.71 232.75 555.83C259.78 603.75 115.77 569.55 141.21 614.66C143.16 618.13 219.36 508.3 244.8 553.42C266.97 592.72 147.73 562.66 169.89 601.96C192.31 641.71 229.51 506.56 254.95 551.68C258.57 558.09 145.85 562.72 170.85 607.05C185.71 633.41 221.35 517.04 246.79 562.16C266.75 597.55 162.71 576.39 179.22 605.68C200.77 643.9 241.36 557.32 246.28 566.04C262.11 594.13 154.94 577.23 176.14 614.81C201.58 659.93 264.38 556.72 266.89 561.17C287.7 598.08 174.88 568.44 195.7 605.35C221.14 650.46 271.69 531.62 283.87 553.22C306.7 593.71 196.03 584.22 207.17 603.97C232.61 649.09 252.01 517.32 277.45 562.43C296.49 596.2 204.05 588.2 212.19 602.65C236.76 646.22 273.47 506.27 298.91 551.38C327.32 601.76 200.44 609.26 202.58 613.06C228.02 658.17 274.3 510.51 299.74 555.62C326.33 602.78 182.05 564.66 208.64 611.82C234.08 656.93 299.35 532.48 310.23 551.76C337.07 599.37 193.43 564.19 220.27 611.79C240.73 648.07 276.37 518.47 301.81 563.59C310.04 578.19 218.23 569.66 237.07 603.06C262.51 648.18 274.77 520.62 300.21 565.73C320.62 601.91 210.57 573.78 230.98 609.96C243.05 631.38 321.43 536.52 329.87 551.5C359.51 604.07 200.46 564.51 230.1 617.08C236.44 628.33 307.22 538.53 321.16 563.25C328.57 576.38 244.94 572.75 262.65 604.16C263.76 606.12 313.46 513.97 338.9 559.09C343.91 567.97 248.6 568.94 269.39 605.81C294.83 650.92 337.55 505.36 362.99 550.47C376.74 574.85 244.48 589.7 259.25 615.89C284.69 661.01 343.33 537.78 355.35 559.09C375.88 595.5 257.99 569.85 280.42 609.62C305.86 654.74 340.14 514.17 365.58 559.28C390.73 603.88 259.91 577.58 281.34 615.59C306.78 660.71 359.78 509.07 385.22 554.19C401.95 583.85 274.57 594.56 287.57 617.62C313.01 662.73 364.55 511.96 389.99 557.07C391.81 560.31 261.28 566.68 290.32 618.19C315.76 663.3 373.79 546.46 383.26 563.25C406.39 604.27 293.65 593.76 304.41 612.83C316.85 634.89 382.54 511.1 406.03 552.76C430.27 595.75 300.03 563.15 324.27 606.14C330.06 616.41 389.11 507.66 414.55 552.77C444.36 605.62 305.84 604.04 312.24 615.4C314.98 620.26 385.9 511.7 411.34 556.81C436.53 601.48 302.02 568.89 327.2 613.56C342.32 640.36 394.07 526.94 413.99 562.26C423.21 578.61 329.27 584.61 342.59 608.25C368.03 653.36 408.6 509.08 434.04 554.19C460.75 601.56 324.42 578.31 344.33 613.63C346.11 616.78 418.25 534.97 433.04 561.19C454.82 599.82 345.05 583.16 360.67 610.86C380.25 645.59 424.69 530.25 442.78 562.32C448.38 572.25 377.83 603.68 379.46 606.57C404.9 651.68 429.46 516.86 454.9 561.97C462.83 576.04 365.02 615.91 365.42 616.62C390.86 661.74 426.88 520.13 452.32 565.25C467.26 591.74 378.72 603.33 383.23 611.34C408.67 656.45 460.08 505.75 485.52 550.87C512.91 599.44 381.39 590.3 393.26 611.34C418.7 656.45 469.3 506.23 494.74 551.35C506.42 572.06 377.6 594.19 390.85 617.68C416.29 662.8 456.77 518.56 482.21 563.68C489.76 577.07 373.06 573.07 397.85 617.03C404.04 628.01 484.2 564.91 484.66 565.71C496.89 587.4 410.84 575.44 428.07 605.99C445.56 637.01 495.44 561.2 497.54 564.93C510.1 587.2 405.89 591.48 418.98 614.69C444.42 659.81 477.79 519.77 503.23 564.89C511.15 578.93 394.06 574.56 418.89 618.6C438.16 652.77 494.71 513.63 520.15 558.75C546.96 606.29 421.14 602.78 427.64 614.31C435.73 628.65 494.72 514.51 520.16 559.62C520.88 560.91 428.62 589.85 441.28 612.29C466.72 657.41 529.89 552.08 533.2 557.95C561.24 607.68 408.9 567.17 436.94 616.89C462.38 662.01 517.88 508.89 543.32 554.01C567.12 596.2 439.17 564.03 462.96 606.22C488.4 651.34 550 541.93 555.43 551.56C579.54 594.32 449.46 561.1 472.73 602.37C477.17 610.24 530.73 507.93 556.17 553.05C578.8 593.18 456.78 562.01 479.4 602.14C504.84 647.26 530.13 512 555.57 557.12C568.67 580.36 459.71 563.97 481.31 602.26C506.75 647.38 530.48 543.61 542.99 565.8C565.38 605.51 445.27 575.71 467.66 615.42C472.48 623.95 549.14 525.09 566.97 556.72C591.67 600.51 446.83 567.45 474.17 615.93C486.37 637.57 538.89 517.52 564.33 562.64C582.93 595.63 482.19 569.34 500.8 602.34C526.24 647.46 551.65 546.75 562.45 565.89C583.02 602.38 476.58 581.82 493.89 612.51C497.63 619.14 563.64 515.56 587.2 557.36C601.25 582.26 470.47 566.56 496.87 613.38C518.02 650.87 586.81 553.01 589.86 558.41C616.57 605.77 473.78 570.97 500.49 618.33C518.48 650.22 571.98 515.91 597.42 561.03C615.73 593.49 517.89 569.7 536.2 602.16C555.95 637.19 582.97 530.47 601.6 563.5C603.78 567.37 506.6 584.39 522.58 612.74C548.02 657.86 586.21 524.64 607.56 562.5C631.89 605.64 502.52 575.45 523.65 612.92C549.09 658.04 606.91 559.61 608.64 562.69C613.38 571.1 528.5 570.22 546.78 602.65C558.18 622.86 602.08 526.39 620.51 559.07C625.33 567.63 517.64 581.29 535.26 612.53C560.7 657.64 618.96 545.4 626.43 558.64C643.18 588.34 555.98 590.66 562.92 602.97C587.81 647.11 629.65 516.22 649.66 551.69C656.89 564.51 527.26 562.42 555.08 611.76C577.94 652.3 606.65 527.23 629.5 567.77C645.23 595.66 559.81 575.07 575.81 603.46C592.46 632.99 607.71 535.11 628.64 572.23C642.78 597.3 571.91 587.02 582.28 605.4C600.39 637.52 625.52 575.04 627.55 578.64C633.65 589.46 563.9 584.02 578.35 609.63C595.53 640.1 639.72 550.77 649.27 567.71C668.33 601.5 569.74 582.4 585.96 611.16C600.2 636.41 614.27 560.76 628.51 586.01C637.89 602.64 595.71 603.73 599.31 610.11C600.56 612.34 631.44 569.97 640.39 585.84C649.5 601.99 603.22 594.11 611 607.9C619.6 623.16 616.2 584.49 624.8 599.75C628.43 606.18 610.91 603.81 614.54 610.25C619.57 619.17 630.4 585.65 636.83 597.07C640.39 603.38 622.4 600.15 625.96 606.46C630.94 615.31 639.5 591.92 642.26 596.83C645.49 602.56 607.38 604.31 614.18 616.37C617.73 622.67 626.94 600.42 630.5 606.72C632.33 609.97 625.24 611.23 626.08 612.71C626.98 614.32 633.71 606.9 634.25 607.87C635.16 609.48 636.47 608.15 637.38 609.76C637.39 609.79 650.9 601.58 650.98 601.72" id="d1O8wMdQ49"></path><path d="M561.58 10.43C561.65 10.55 579.17 -0.09 579.22 0C585.57 11.26 552.34 4.06 558.69 15.32C558.94 15.78 575.48 1.53 577.11 4.43C579.21 8.15 563.75 6.62 566.89 12.18C567.17 12.68 573.12 3 575.44 7.12C580.75 16.52 553.78 11.54 559.08 20.94C563.58 28.92 580.54 5.67 581.63 7.61C585.87 15.13 561.86 14.8 565.75 21.7C572.45 33.58 577.01 -1.02 583.8 11.03C588.71 19.74 549.49 16.04 557.57 30.37C566.24 45.75 582.24 -4.71 590.91 10.66C597.02 21.49 565.78 15.51 571.89 26.33C575.47 32.69 597.86 -10.04 606.75 5.72C615.41 21.07 575.14 21.32 577.45 25.41C578.97 28.11 609.25 -5.66 614.44 3.55C622.25 17.4 567.84 29.03 571.4 35.36C584.97 59.42 598.3 -15.26 612.98 10.78C622.98 28.51 576.71 28.21 579.59 33.3C586.13 44.91 617.23 -10.74 626.45 5.6C644.29 37.24 549.73 15.23 567.57 46.87C580.49 69.78 593.75 -3.32 608.43 22.71C624.41 51.05 549.19 48.36 554.79 58.29C569.47 84.33 604.96 -6.08 619.65 19.96C634.86 46.93 553.61 27.23 568.82 54.21C583.5 80.25 627.6 12.42 630.58 17.7C631.18 18.78 558.06 53.8 563 62.56C577.68 88.6 590.59 11.53 605.27 37.57C614.88 54.59 563.31 41.73 572.92 58.76C576.11 64.42 609.5 23.47 615.27 33.72C629.33 58.64 554.08 40.16 568.13 65.08C578.44 83.36 607.3 7.21 621.98 33.25C633.13 53.01 568.4 65.46 569.22 66.92C574.17 75.71 623.01 32.24 624.23 34.4C626.52 38.46 560.53 67.27 562.87 71.42C573.31 89.93 607.83 16.97 619.62 37.87C633.68 62.81 557.2 42.33 571.26 67.26C580.95 84.44 605.05 12.57 619.73 38.61C635.66 66.85 564.05 70.16 566.22 74C574.9 89.41 616.71 17.49 627.98 37.49C637.34 54.09 566.96 43.2 580.88 67.89C595.57 93.93 604.21 19.38 618.89 45.42C636.51 76.67 548.19 64.2 559.69 84.6C572.72 107.7 624.02 33.46 629.56 43.3C635.95 54.63 551.43 53.39 569.64 85.68C584.32 111.72 600.62 36.38 613.73 59.62C621.7 73.77 559.29 72.33 568.56 88.76C575.35 100.8 591.3 40.6 605.98 66.63C616.38 85.08 561.36 72.68 570.33 88.6C585.02 114.64 597.65 37.73 612.33 63.77C615.88 70.06 566.49 67.41 576.86 85.81C591.54 111.85 590.01 43.31 604.7 69.35C619.12 94.93 542.47 76.83 556.89 102.4C571.57 128.44 595.82 44.7 610.49 70.71C613.05 75.25 569.79 87.83 575.5 97.95C585.12 115.01 622.58 58.72 627.4 67.27C648.5 104.69 533.95 74.38 555.05 111.81C561.69 123.57 589.07 56.98 603.75 83.02C614.14 101.44 554.83 99.19 561.07 110.26C568.9 124.14 592.8 56.78 607.48 82.82C619.57 104.26 562.81 101.91 568.78 112.49C581.48 135.01 607.31 55 621.99 81.04C636.39 106.56 559.3 87.58 573.69 113.11C588.37 139.15 628.23 75.32 630.58 79.48C645.2 105.41 541.76 90.05 562.33 126.53C577.01 152.57 599.26 69.99 613.94 96.03C617.3 101.98 561.51 100.46 573.41 121.56C574.85 124.11 607.02 66.97 621.71 93.01C640.28 125.95 541.96 103.51 559.45 134.52C560.58 136.53 611.1 69.27 625.78 95.31C639.28 119.24 567.44 102.15 580.93 126.08C593.87 149.02 614.05 71.79 628.73 97.82C631.19 102.19 555.31 106.65 572.32 136.82C580.9 152.04 596.32 87.92 611 113.96C621.96 133.4 565.57 122.95 574.64 139.04C587.08 161.1 601.59 116.39 604.43 121.43C614.92 140.03 545.14 130.59 559.18 155.49C573.86 181.53 611.22 121.3 612.67 123.87C623.75 143.52 564.12 128.46 575.2 148.11C589.88 174.15 619.08 105.54 626.11 118.01C640.84 144.14 570.33 139.4 577.52 152.15C592.2 178.19 595.85 106.6 610.53 132.64C619.62 148.75 575.88 145.57 579.76 152.46C593.95 177.61 614.54 97.19 629.22 123.22C649.19 158.63 560.65 164.93 562.15 167.6C576.84 193.64 607.37 106.16 622.05 132.19C639.03 162.3 547.27 138.59 564.25 168.7C578.93 194.74 622.3 119.54 628.58 130.68C648.02 165.16 544.86 141.04 564.3 175.52C576.11 196.46 593.89 123.31 608.57 149.35C612.36 156.07 570.39 152.62 579.06 168C593.74 194.04 590.26 126.66 604.94 152.7C616.21 172.68 556.12 158.22 567.39 178.2C574.36 190.56 624.15 133.12 629.02 141.76C651.14 180.99 533.23 152.69 555.35 191.91C559.01 198.41 601.1 145.84 609.15 160.11C613.36 167.59 567.12 167.44 577.2 185.32C577.84 186.45 601.5 136.24 616.19 162.28C619.27 167.74 561.62 169.9 574.42 192.6C589.1 218.64 616.08 133.25 630.76 159.29C640.55 176.66 546.83 188.1 557.36 206.77C572.04 232.81 609.25 159.69 616.19 171.99C629.69 195.93 553.22 180.6 567.96 206.75C582.65 232.79 601.17 152.4 615.85 178.44C633.44 209.63 542.87 192.65 557.86 219.23C572.55 245.27 609.79 153.82 624.48 179.86C636.6 201.35 545.02 210.26 554.44 226.96C569.12 253 604.91 162.41 619.6 188.45C620.81 190.6 534.11 195.39 553.47 229.73C568.16 255.77 603.69 187.12 609.15 196.82C622.98 221.34 556.11 215.93 562.54 227.33C569.72 240.07 613.35 165.25 626.9 189.29C642.87 217.61 557.88 197.39 573.85 225.71C577.19 231.64 612.19 168.33 626.87 194.37C646.96 230 553.88 229.45 558.2 237.1C559.78 239.91 605.35 174.51 620.03 200.55C637.91 232.24 543.43 210.58 561.3 242.28C570.02 257.74 599.33 192.61 610.82 213C616.15 222.45 562.59 227.08 570.29 240.75C584.97 266.79 609.79 182.68 624.47 208.72C643.57 242.59 546.95 227.28 561.19 252.54C562.21 254.36 604.09 206.99 612.63 222.13C627.04 247.69 555.53 238.33 565.87 256.66C577.17 276.7 600.28 211.63 610.71 230.15C614.15 236.25 572.13 257.41 573.13 259.18C587.81 285.22 596.62 210.57 611.31 236.61C616.23 245.33 555.87 270.55 556.12 270.99C570.81 297.03 591.08 215.6 605.76 241.64C614.78 257.63 562.34 266.12 565.06 270.95C579.75 296.99 615.41 206.47 630.09 232.51C649.63 267.16 556.59 261.87 565.06 276.88C579.74 302.92 614.59 212.88 629.27 238.92C637.77 253.99 544.68 271.06 554.32 288.15C569.01 314.19 593.74 230.13 608.42 256.17C613.22 264.67 539.69 263.06 555.43 290.97C559.01 297.31 604.72 261.22 604.98 261.68C611.98 274.09 564.24 269.29 574.1 286.77C584.19 304.67 605.09 265.58 606.31 267.73C613.91 281.2 551.46 284.76 559.37 298.8C574.06 324.84 591.69 244.98 606.37 271.02C611.46 280.05 536.8 278.25 552.77 306.56C563.89 326.29 602.08 242.69 616.76 268.73C633.25 297.97 556.03 296.06 560.03 303.15C564.7 311.43 600.6 244.45 615.28 270.49C615.77 271.35 554.98 292.15 563.44 307.17C578.13 333.21 616.19 271.47 618.1 274.86C636.38 307.28 537.38 281.39 555.66 313.81C570.34 339.85 610.09 246.91 624.78 272.95C640.13 300.17 558.36 280.63 573.71 307.85C588.39 333.89 625.79 269.66 628.92 275.22C643.22 300.57 566.42 281.45 580.22 305.93C582.78 310.47 611.72 252.59 626.4 278.63C640.09 302.91 566.92 285.13 580.61 309.41C595.3 335.45 604.83 260.37 619.52 286.41C626.46 298.73 568.97 290.48 580.41 310.77C595.09 336.81 597.61 283.53 604.83 296.34C618.97 321.41 544.01 303.95 558.15 329.03C560.93 333.95 609.9 274.09 620.2 292.35C637.11 322.33 538.56 300.71 557.28 333.9C564.32 346.39 595.5 276.59 610.18 302.63C619.09 318.42 571.37 306.66 580.27 322.46C594.96 348.5 598.44 296.99 604.67 308.04C617.49 330.77 552.28 319.6 563.06 338.73C565.22 342.55 605.51 281.47 619.11 305.59C628.12 321.57 544.66 312.19 561.6 342.22C573.8 363.86 615.56 306.16 617.32 309.28C636.75 343.73 533.8 319.8 553.23 354.25C563.61 372.66 598.22 292.93 612.9 318.97C622.9 336.69 570.58 325.31 580.57 343.04C591.97 363.25 597.96 307.33 608.71 326.4C609.99 328.67 553.27 339.46 562.68 356.13C577.36 382.17 598.08 306.06 610.4 327.92C624.37 352.69 550.23 335.61 562.37 357.14C577.05 383.18 609.09 327.15 610.09 328.93C612.48 333.16 570.55 333.94 579.75 350.26C586.33 361.93 605.58 309.84 616.21 328.71C619.25 334.09 551.94 343.53 563.04 363.21C577.72 389.25 612.64 323.7 616.94 331.34C627.24 349.59 574.95 352.87 579.21 360.43C593.89 386.47 618.79 309.13 630.59 330.06C635.7 339.12 544.68 338.53 564.33 373.39C579.02 399.43 595.76 320.09 610.44 346.14C620.04 363.17 568.61 351.7 578.38 369.03C590.07 389.75 594.89 324.55 609.58 350.59C620.3 369.62 567.23 362.8 575.1 376.74C589.78 402.78 606.84 354.09 608.48 357.01C613.53 365.96 555.99 361.7 567.93 382.88C582.62 408.93 622.04 331.6 630.21 346.08C649.71 380.66 548.74 361.01 565.34 390.45C580.03 416.49 594.76 338.34 609.44 364.38C622.58 387.67 562.07 387.31 567.11 396.25C568.8 399.24 609.26 342.83 621.31 364.21C636.49 391.12 557.89 375.75 570.85 398.73C585.54 424.78 591.04 352.08 605.73 378.12C613.78 392.39 571.86 383.54 579.91 397.82C591.39 418.18 589.06 357.68 603.74 383.73C612.92 400 564.11 388.43 573.29 404.7C587.97 430.74 615.05 360.76 623.19 375.2C630.66 388.45 540.82 389.69 556.53 417.54C571.22 443.59 596.73 359.05 611.42 385.1C625.91 410.79 556.12 405.55 562.72 417.26C569.71 429.65 610.95 378.76 615.18 386.25C629.78 412.15 553.11 395.21 567.71 421.1C571.06 427.04 617.22 357.11 631.9 383.16C655.22 424.51 534.02 400.33 553.56 434.99C562.55 450.92 591.71 377.71 606.4 403.76C616.73 422.09 556.99 425.61 563.16 436.56C567.89 444.94 611.84 373.06 626.53 399.11C631.31 407.59 543.61 409.47 562.88 443.65C577.57 469.69 609.32 403.05 614.88 412.91C627.2 434.76 562.29 420.14 574.61 441.99C582.06 455.2 616.86 382.29 631.54 408.33C639.25 422 563.64 427.17 575.08 447.45C589.76 473.49 623.21 418.11 623.58 418.78C634.48 438.09 569.94 433.46 578.79 449.16C592.03 472.64 600.45 416.22 608.96 431.32C619.43 449.89 571.14 449.71 574.56 455.76C580.83 466.89 615.19 429.64 616.07 431.22C617.17 433.16 546.11 440.07 562.39 468.93C577.08 494.98 589.71 418.06 604.4 444.1C617.68 467.65 540.92 451.88 555.66 478C558.96 483.86 615.82 407.71 630.5 433.75C634.84 441.45 549.16 441.01 567.66 473.84C582.35 499.88 620.22 420.87 629.48 437.3C648.07 470.27 563.56 472.58 566.64 478.05C581.33 504.09 598.78 424.33 613.46 450.37C627.35 475 553.64 457.74 567.53 482.38C576.47 498.24 612.62 421 627.31 447.04C648.33 484.31 534.69 454.89 555.71 492.16C570.4 518.2 610.31 425.16 625 451.2C629.77 459.66 563.81 457.02 577.78 481.8C592.47 507.84 611.8 434.73 623.2 454.95C636.6 478.71 567.54 465.86 578.08 484.55C592.11 509.43 609.06 435.36 622.12 458.52C641.73 493.3 538.3 470.51 554.68 499.56C569.37 525.61 593.2 442.07 607.89 468.12C613.87 478.74 554.49 472.68 566.61 494.18C581.3 520.22 590.54 445.3 605.23 471.35C620.02 497.58 540.31 477.28 555.1 503.51C563.62 518.62 623.04 457.32 625.59 461.84C638.71 485.11 557.07 470 572.94 498.15C587.63 524.19 602.97 450.89 615.44 473.02C628.11 495.48 570.53 497.08 571.89 499.49C577.43 509.32 599.28 455.89 610.87 476.45C612.01 478.47 560.32 483.1 572.12 504.03C586.21 529.01 605.22 469.75 611.44 480.79C623.8 502.7 568.66 505.43 571.88 511.13C586.56 537.17 610.13 473.93 616.3 484.87C617.64 487.25 556.89 510.2 562.03 519.3C576.71 545.34 611.8 472.88 618.99 485.63C631.4 507.64 568.62 497.94 576.37 511.69C582.26 522.13 599.69 463.19 614.37 489.23C628.61 514.48 553.64 497.63 567.87 522.88C582.56 548.92 615.46 460.02 630.15 486.06C646.71 515.43 563.78 503.73 575.1 523.81C587.65 546.05 621.05 482.48 627.04 493.1C648.72 531.54 534.7 506.49 555.05 542.58C560.02 551.39 590.32 489.06 604.14 513.57C614.61 532.13 555.58 523.48 563.92 538.27C578.61 564.32 602.3 485.97 614.82 508.19C625.79 527.64 567.79 514.34 578.76 533.8C592.88 558.83 606.23 512.22 608.49 516.23C621.17 538.73 559.79 533.75 564.99 542.98C578.78 567.43 605.66 487.81 618.83 511.16C631.91 534.35 562.05 517.39 575.13 540.58C576.11 542.32 592.24 495.74 606.92 521.79C618.16 541.71 564.37 538.17 569.46 547.21C584.15 573.25 606.99 490.3 621.67 516.34C625.66 523.42 539.02 525.4 558.05 559.16C558.11 559.25 599.92 502.76 613.3 526.49C627.63 551.9 559.67 548.58 565.26 558.48C569.88 566.68 601.7 507.1 614.32 529.48C631.73 560.36 537.98 536.61 555.39 567.49C560.75 576.98 615.96 496.96 630.65 523C646.83 551.69 559.1 528.6 575.28 557.29C589.96 583.33 596.24 515.96 608.48 537.66C613.24 546.11 574.23 555.95 577.28 561.37C591.97 587.42 601 512.63 615.69 538.67C633.68 570.57 552.03 572.65 556.46 580.51C565.65 596.81 609.3 525.94 619.17 543.44C631.93 566.07 563.87 549.68 576.63 572.31C580.76 579.63 601.03 523.16 615.71 549.21C624.83 565.38 564.64 553.84 576.27 574.47C588.62 596.36 612.79 548.49 614.65 551.78C629.01 577.25 551.57 557.48 565.93 582.95C578.9 605.95 602.64 526.53 617.33 552.57C631.73 578.11 555.58 585.68 558.04 590.05C572.02 614.83 616.12 548.73 619.07 553.97C637.49 586.63 549.88 582.11 555.6 592.25C570.28 618.29 617.06 521.19 631.75 547.23C646.99 574.27 531.51 558.66 554.65 599.7C555.38 601 595.4 540.88 610.09 566.93C619.66 583.89 568.45 571.34 578.02 588.31C592.71 614.36 613.1 532.85 627.78 558.89C643.69 587.11 575.7 596.32 575.77 596.44C576.38 597.53 599.99 552.19 612.65 574.64C630.51 606.32 550.27 610.04 553.14 615.13C561.91 630.69 594.92 555.71 609.6 581.75C625.84 610.54 540.41 591.45 556.65 620.24C566.21 637.2 623.66 566.86 629.48 577.19C629.95 578.02 549.62 603.76 560.48 623.01C575.16 649.06 611.25 589.98 612.53 592.24C625.16 614.64 559.14 600.4 571.77 622.79C576.38 630.97 611.23 564.74 625.91 590.79C646.38 627.07 538.44 603.06 557.13 636.2C571.5 661.69 606.27 573.16 620.64 598.65C633.95 622.25 572.46 621.82 577 629.86C587.68 648.8 613.86 598.45 617.93 605.67C627.56 622.75 576.17 610.48 585.3 626.67C591.36 637.43 620.12 580.31 631.02 599.64C636.78 609.85 581.99 611.92 590.46 626.94C599.06 642.19 606.52 605.31 611.65 614.41C617.39 624.6 580.95 620.14 588.38 633.32C595.13 645.3 618.4 604.69 623 612.85C624.98 616.35 598.57 618.02 603.83 627.34C609.04 636.58 603.2 615.4 608.41 624.64C608.99 625.68 608.57 626.34 609.37 627.75C612.78 633.8 629.65 611.97 631.25 614.81C640.66 631.5 593.16 624.03 600.44 636.95C600.8 637.58 605 632.84 605.6 633.9C606.18 634.92 617.02 628.95 617.48 629.77C617.56 629.92 617.68 629.46 617.76 629.6" id="abwlfICRX"></path><path d="M27.24 27.77C27.31 27.89 44.83 17.25 44.88 17.34C51.23 28.61 17.99 21.4 24.35 32.66C24.6 33.12 41.14 18.87 42.77 21.77C44.87 25.49 29.41 23.96 32.55 29.52C32.83 30.02 38.78 20.34 41.1 24.46C46.41 33.86 19.44 28.88 24.74 38.28C29.24 46.26 46.2 23.02 47.29 24.96C51.53 32.47 27.52 32.15 31.41 39.05C38.11 50.93 42.67 16.32 49.46 28.37C54.37 37.08 15.15 33.38 23.23 47.72C31.9 63.09 47.9 12.63 56.57 28.01C62.68 38.83 31.44 32.85 37.55 43.67C41.13 50.03 63.52 7.3 72.41 23.07C81.07 38.41 40.8 38.66 43.11 42.76C44.63 45.45 74.91 11.68 80.1 20.89C87.91 34.74 33.5 46.38 37.06 52.7C50.63 76.77 63.96 2.08 78.64 28.12C88.64 45.85 42.37 45.55 45.24 50.64C51.79 62.26 82.89 6.6 92.11 22.94C109.95 54.58 15.39 32.58 33.22 64.21C46.15 87.13 59.41 14.02 74.09 40.06C90.07 68.39 14.85 65.7 20.45 75.64C35.13 101.67 70.62 11.26 85.31 37.3C100.52 64.27 19.27 44.57 34.48 71.55C49.16 97.59 93.26 29.76 96.24 35.04C96.84 36.12 23.72 71.14 28.65 79.9C43.34 105.94 56.25 28.87 70.93 54.91C80.54 71.94 28.97 59.07 38.58 76.1C41.77 81.76 75.16 40.81 80.93 51.06C94.99 75.98 19.74 57.5 33.79 82.42C44.1 100.71 72.96 24.55 87.65 50.59C98.79 70.35 34.06 82.8 34.88 84.26C39.84 93.05 88.67 49.58 89.89 51.74C92.18 55.8 26.19 84.61 28.53 88.76C38.97 107.27 73.49 34.31 85.28 55.22C99.34 80.15 22.86 59.67 36.92 84.6C46.61 101.78 70.71 29.91 85.39 55.95C101.32 84.19 29.71 87.5 31.88 91.34C40.56 106.75 82.37 34.83 93.65 54.83C103.01 71.43 32.63 60.54 46.55 85.23C61.23 111.27 69.87 36.73 84.55 62.76C102.17 94.01 13.85 81.54 25.36 101.95C38.38 125.05 89.68 50.81 95.23 60.64C101.62 71.98 17.09 70.73 35.3 103.02C49.98 129.06 66.29 53.72 79.39 76.96C87.37 91.11 24.95 89.67 34.22 106.1C41.01 118.14 56.96 57.94 71.64 83.98C82.05 102.42 27.02 90.02 36 105.94C50.68 131.98 63.31 55.08 77.99 81.11C81.54 87.41 32.15 84.75 42.52 103.15C57.2 129.19 55.68 60.66 70.36 86.69C84.78 112.27 8.13 94.17 22.55 119.74C37.23 145.78 61.49 62.04 76.16 88.05C78.72 92.59 35.46 105.17 41.16 115.29C50.78 132.35 88.24 76.06 93.06 84.61C114.17 122.04 -0.39 91.72 20.71 129.15C27.35 140.92 54.73 74.32 69.41 100.36C79.8 118.78 20.49 116.53 26.73 127.6C34.56 141.48 58.46 74.12 73.15 100.16C85.23 121.6 28.48 119.25 34.44 129.83C47.15 152.36 72.98 72.34 87.66 98.38C102.05 123.9 24.96 104.92 39.35 130.45C54.04 156.49 93.9 92.66 96.24 96.82C110.87 122.75 7.43 107.4 28 143.87C42.68 169.91 64.92 87.33 79.6 113.37C82.96 119.32 27.17 117.8 39.07 138.9C40.51 141.45 72.69 84.31 87.37 110.35C105.94 143.29 7.63 120.86 25.11 151.87C26.24 153.87 76.76 86.62 91.44 112.66C104.94 136.59 33.1 119.49 46.6 143.42C59.53 166.36 79.71 89.13 94.39 115.17C96.86 119.53 20.97 123.99 37.99 154.17C46.57 169.38 61.98 105.27 76.66 131.31C87.62 150.74 31.23 140.3 40.3 156.38C52.74 178.44 67.25 133.73 70.09 138.77C80.58 157.38 10.8 147.93 24.85 172.83C39.53 198.87 76.88 138.64 78.33 141.21C89.41 160.86 29.78 145.8 40.86 165.45C55.55 191.49 84.74 122.89 91.78 135.36C106.51 161.48 35.99 156.74 43.18 169.49C57.87 195.53 61.51 123.94 76.2 149.98C85.28 166.1 41.54 162.91 45.43 169.81C59.61 194.95 80.21 114.53 94.89 140.57C114.85 175.97 26.31 182.28 27.82 184.95C42.5 210.99 73.03 123.5 87.72 149.54C104.69 179.65 12.94 155.94 29.92 186.05C44.6 212.09 87.97 136.89 94.24 148.02C113.69 182.5 10.52 158.38 29.97 192.87C41.77 213.81 59.55 140.66 74.23 166.7C78.03 173.42 36.05 169.97 44.72 185.34C59.41 211.38 55.92 144 70.61 170.04C81.87 190.02 21.79 175.56 33.05 195.54C40.02 207.9 89.81 150.46 94.69 159.11C116.8 198.33 -1.11 170.03 21.01 209.26C24.67 215.75 66.77 163.19 74.81 177.46C79.03 184.93 32.78 184.78 42.87 202.67C43.5 203.8 67.17 153.58 81.85 179.62C84.93 185.09 27.28 187.24 40.08 209.94C54.76 235.98 81.74 150.59 96.42 176.63C106.22 194.01 12.49 205.45 23.02 224.12C37.7 250.16 74.92 177.04 81.85 189.34C95.35 213.27 18.88 197.95 33.63 224.09C48.31 250.13 66.83 169.74 81.52 195.78C99.11 226.98 8.53 209.99 23.53 236.58C38.21 262.62 75.46 171.16 90.14 197.2C102.26 218.69 10.68 227.6 20.1 244.31C34.79 270.35 70.58 179.75 85.26 205.79C86.48 207.95 -0.22 212.74 19.14 247.07C33.82 273.11 69.35 204.47 74.82 214.16C88.65 238.69 21.78 233.28 28.21 244.68C35.39 257.41 79.01 182.59 92.57 206.63C108.54 234.95 23.54 214.73 39.51 243.05C42.86 248.98 77.85 185.67 92.54 211.71C112.63 247.34 19.55 246.79 23.86 254.45C25.44 257.25 71.02 191.85 85.7 217.89C103.57 249.59 9.09 227.93 26.97 259.62C35.69 275.09 64.99 209.96 76.49 230.35C81.82 239.8 28.25 244.43 35.96 258.09C50.64 284.13 75.45 200.02 90.14 226.06C109.24 259.93 12.61 244.63 26.85 269.88C27.88 271.7 69.76 224.34 78.29 239.47C92.71 265.03 21.2 255.67 31.53 274C42.84 294.05 65.94 228.98 76.38 247.49C79.82 253.59 37.8 274.75 38.8 276.53C53.48 302.57 62.29 227.91 76.98 253.96C81.89 262.67 21.54 287.89 21.79 288.33C36.47 314.37 56.74 232.95 71.43 258.99C80.44 274.97 28 283.46 30.73 288.29C45.41 314.33 81.07 223.81 95.76 249.85C115.3 284.5 22.26 279.22 30.72 294.23C45.41 320.27 80.26 230.22 94.94 256.27C103.43 271.33 10.35 288.4 19.99 305.49C34.67 331.53 59.4 247.47 74.09 273.51C78.88 282.02 5.36 280.41 21.1 308.32C24.67 314.66 70.39 278.56 70.65 279.03C77.64 291.44 29.91 286.64 39.76 304.11C49.86 322.02 70.76 282.92 71.97 285.07C79.57 298.55 17.12 302.1 25.04 316.14C39.73 342.19 57.35 262.32 72.04 288.36C77.13 297.39 2.47 295.59 18.43 323.91C29.56 343.63 67.74 260.04 82.43 286.08C98.91 315.31 21.7 313.41 25.69 320.5C30.36 328.77 66.26 261.79 80.95 287.83C81.43 288.7 20.64 309.5 29.11 324.52C43.79 350.56 81.86 288.82 83.77 292.21C102.05 324.62 3.04 298.74 21.32 331.16C36.01 357.2 75.76 264.26 90.44 290.3C105.8 317.52 24.03 297.98 39.38 325.2C54.06 351.24 91.45 287.01 94.59 292.56C108.89 317.92 32.09 298.8 45.89 323.27C48.45 327.82 77.38 269.93 92.07 295.97C105.76 320.26 32.58 302.47 46.28 326.76C60.96 352.8 70.5 277.72 85.18 303.76C92.13 316.07 34.63 307.82 46.08 328.12C60.76 354.16 63.28 300.87 70.5 313.68C84.64 338.76 9.67 321.3 23.81 346.37C26.59 351.3 75.57 291.44 85.86 309.69C102.77 339.68 4.23 318.05 22.95 351.24C29.99 363.73 61.16 293.93 75.85 319.97C84.75 335.77 37.03 324 45.94 339.8C60.62 365.84 64.1 314.33 70.33 325.38C83.15 348.12 17.94 336.95 28.73 356.07C30.88 359.9 71.17 298.81 84.78 322.94C93.79 338.91 10.33 329.54 27.26 359.57C39.46 381.21 81.23 323.5 82.99 326.62C102.41 361.07 -0.54 337.14 18.89 371.59C29.27 390 63.88 310.27 78.56 336.32C88.56 354.04 36.23 342.66 46.23 360.38C57.63 380.6 63.62 324.67 74.37 343.74C75.65 346.02 18.93 356.8 28.34 373.48C43.02 399.52 63.74 323.41 76.06 345.27C90.03 370.04 15.89 352.96 28.02 374.48C42.71 400.52 74.75 344.49 75.75 346.27C78.14 350.5 36.2 351.28 45.41 367.6C51.99 379.27 71.23 327.19 81.87 346.05C84.91 351.44 17.6 360.88 28.69 380.55C43.38 406.59 78.3 341.04 82.6 348.68C92.9 366.94 40.6 370.21 44.87 377.77C59.55 403.82 84.45 326.47 96.25 347.4C101.36 356.46 10.34 355.88 29.99 390.73C44.68 416.78 61.41 337.44 76.1 363.48C85.7 380.51 34.27 369.05 44.04 386.38C55.73 407.1 60.55 341.89 75.23 367.94C85.96 386.96 32.89 380.14 40.75 394.08C55.44 420.12 72.5 371.43 74.14 374.35C79.19 383.3 21.65 379.04 33.59 400.23C48.28 426.27 87.7 348.94 95.86 363.42C115.37 398 14.4 378.35 31 407.79C45.69 433.83 60.42 355.68 75.1 381.72C88.24 405.02 27.73 404.65 32.77 413.59C34.46 416.58 74.92 360.17 86.97 381.55C102.15 408.46 23.55 393.1 36.51 416.08C51.2 442.12 56.7 369.42 71.39 395.46C79.44 409.74 37.51 400.88 45.56 415.16C57.04 435.52 54.72 375.03 69.4 401.07C78.58 417.34 29.77 405.77 38.95 422.04C53.63 448.08 80.7 378.11 88.85 392.54C96.31 405.79 6.48 407.03 22.19 434.89C36.88 460.93 62.39 376.4 77.08 402.44C91.57 428.13 21.78 422.9 28.38 434.6C35.37 446.99 76.61 396.1 80.84 403.59C95.44 429.49 18.77 412.55 33.37 438.45C36.72 444.38 82.88 374.46 97.56 400.5C120.88 441.85 -0.32 417.68 19.22 452.33C28.21 468.27 57.37 395.06 72.06 421.1C82.4 439.43 22.65 442.96 28.82 453.9C33.55 462.28 77.5 390.4 92.19 416.45C96.97 424.93 9.27 426.81 28.54 460.99C43.23 487.04 74.98 420.39 80.54 430.25C92.86 452.1 27.95 437.48 40.27 459.33C47.72 472.54 82.52 399.63 97.2 425.68C104.91 439.35 29.3 444.51 40.74 464.79C55.43 490.84 88.87 435.45 89.24 436.12C100.14 455.44 35.6 450.81 44.45 466.5C57.69 489.98 66.11 433.57 74.62 448.67C85.09 467.23 36.8 467.05 40.22 473.1C46.49 484.24 80.85 446.98 81.73 448.56C82.83 450.51 11.77 457.41 28.05 486.28C42.74 512.32 55.37 435.4 70.06 461.44C83.34 484.99 6.58 469.22 21.32 495.34C24.62 501.2 81.48 425.05 96.16 451.1C100.5 458.79 14.82 458.36 33.32 491.18C48.01 517.22 85.88 438.21 95.14 454.64C113.74 487.62 29.22 489.92 32.3 495.39C46.99 521.43 64.44 441.67 79.12 467.71C93.01 492.35 19.3 475.09 33.19 499.72C42.14 515.58 78.28 438.34 92.97 464.38C113.99 501.65 0.35 472.23 21.37 509.5C36.06 535.55 75.97 442.5 90.66 468.55C95.43 477.01 29.47 474.37 43.44 499.14C58.13 525.18 77.46 452.07 88.86 472.29C102.26 496.05 33.2 483.2 43.74 501.89C57.77 526.77 74.72 452.7 87.78 475.86C107.39 510.64 3.96 487.85 20.34 516.91C35.03 542.95 58.86 459.41 73.55 485.46C79.53 496.08 20.15 490.02 32.27 511.52C46.96 537.56 56.2 462.65 70.89 488.69C85.68 514.92 5.97 494.62 20.76 520.85C29.28 535.96 88.7 474.66 91.25 479.18C104.37 502.45 22.73 487.35 38.6 515.49C53.29 541.53 68.63 468.23 81.1 490.36C93.77 512.82 36.19 514.42 37.55 516.83C43.09 526.66 64.94 473.23 76.53 493.79C77.67 495.81 25.98 500.45 37.78 521.37C51.87 546.36 70.88 487.09 77.1 498.13C89.46 520.04 34.33 522.77 37.54 528.47C52.22 554.51 75.79 491.28 81.96 502.21C83.3 504.59 22.55 527.54 27.69 536.64C42.37 562.69 77.46 490.23 84.65 502.97C97.06 524.98 34.28 515.29 42.03 529.04C47.92 539.47 65.35 480.53 80.03 506.57C94.27 531.82 19.3 514.97 33.53 540.22C48.22 566.26 81.12 477.36 95.81 503.41C112.37 532.78 29.44 521.07 40.76 541.15C53.31 563.39 86.71 499.83 92.7 510.45C114.38 548.89 0.36 523.84 20.71 559.93C25.67 568.73 55.98 506.4 69.8 530.91C80.27 549.47 21.24 540.82 29.58 555.62C44.27 581.66 67.96 503.32 80.48 525.53C91.45 544.99 33.45 531.69 44.42 551.15C58.54 576.17 71.89 529.57 74.15 533.57C86.83 556.07 25.45 551.09 30.65 560.33C44.44 584.77 71.32 505.16 84.49 528.5C97.57 551.69 27.71 534.74 40.79 557.92C41.77 559.67 57.9 513.08 72.58 539.13C83.82 559.05 30.03 555.51 35.13 564.55C49.81 590.6 72.65 507.64 87.33 533.69C91.32 540.76 4.68 542.75 23.71 576.5C23.77 576.6 65.58 520.1 78.96 543.84C93.29 569.25 25.33 565.92 30.92 575.83C35.54 584.02 67.36 524.44 79.98 546.82C97.4 577.7 3.64 553.96 21.06 584.83C26.41 594.33 81.62 514.3 96.31 540.35C112.49 569.04 24.76 545.94 40.94 574.63C55.62 600.67 61.9 533.31 74.14 555C78.9 563.45 39.89 573.3 42.94 578.72C57.63 604.76 66.66 529.97 81.35 556.01C99.34 587.92 17.69 589.99 22.12 597.85C31.32 614.15 74.97 543.29 84.83 560.78C97.59 583.41 29.53 567.03 42.29 589.65C46.42 596.97 66.69 540.5 81.37 566.55C90.49 582.72 30.3 571.18 41.93 591.81C54.28 613.71 78.46 565.83 80.31 569.12C94.67 594.59 17.23 574.83 31.59 600.3C44.56 623.3 68.3 543.87 82.99 569.91C97.39 595.46 21.24 603.03 23.71 607.39C37.68 632.18 81.78 566.07 84.74 571.31C103.15 603.97 15.54 599.45 21.26 609.59C35.95 635.63 82.72 538.53 97.41 564.57C112.65 591.61 -2.83 576 20.31 617.04C21.05 618.34 61.07 558.22 75.75 584.27C85.32 601.24 34.11 588.69 43.68 605.65C58.37 631.7 78.76 550.19 93.45 576.24C109.36 604.45 41.36 613.66 41.43 613.79C42.04 614.87 65.65 569.53 78.31 591.99C96.18 623.66 15.93 627.38 18.8 632.48C27.57 648.03 60.58 573.05 75.27 599.1C91.5 627.89 6.08 608.79 22.31 637.59C31.88 654.55 89.32 584.2 95.14 594.53C95.62 595.37 15.28 621.1 26.14 640.36C40.82 666.4 76.92 607.33 78.19 609.59C90.82 631.98 24.8 617.74 37.43 640.13C42.05 648.32 76.89 582.08 91.58 608.13C112.04 644.41 4.1 620.4 22.79 653.54C37.17 679.03 71.93 590.5 86.31 615.99C99.61 639.6 38.12 639.16 42.66 647.21C53.34 666.15 79.52 615.79 83.59 623.01C93.22 640.1 41.83 627.82 50.96 644.01C57.03 654.77 85.79 597.66 96.68 616.98C102.44 627.19 47.65 629.27 56.12 644.28C64.72 659.53 72.18 622.65 77.31 631.76C83.06 641.94 46.61 637.49 54.04 650.66C60.79 662.64 84.06 622.03 88.66 630.19C90.64 633.69 64.23 635.36 69.49 644.69C74.7 653.93 68.86 632.74 74.07 641.98C74.66 643.02 74.23 643.68 75.03 645.09C78.44 651.15 95.31 629.31 96.91 632.16C106.32 648.84 58.82 641.38 66.1 654.3C66.46 654.92 70.67 650.18 71.26 651.24C71.84 652.27 82.68 646.29 83.14 647.12C83.23 647.26 83.35 646.8 83.43 646.95" id="aQjkXBt9e"></path></defs><g><g><g><use xlink:href="#fbz5BcW8l" opacity="1" fill="#000000" fill-opacity="0"></use><g><use xlink:href="#fbz5BcW8l" opacity="1" fill-opacity="0" stroke="#30e804" stroke-width="7" stroke-opacity="1"></use></g></g><g><use xlink:href="#d1O8wMdQ49" opacity="1" fill="#000000" fill-opacity="0"></use><g><use xlink:href="#d1O8wMdQ49" opacity="1" fill-opacity="0" stroke="#f40000" stroke-width="7" stroke-opacity="1"></use></g></g><g><use xlink:href="#abwlfICRX" opacity="1" fill="#000000" fill-opacity="0"></use><g><use xlink:href="#abwlfICRX" opacity="1" fill-opacity="0" stroke="#14cce4" stroke-width="7" stroke-opacity="1"></use></g></g><g><use xlink:href="#aQjkXBt9e" opacity="1" fill="#000000" fill-opacity="0"></use><g><use xlink:href="#aQjkXBt9e" opacity="1" fill-opacity="0" stroke="#d9bb0e" stroke-width="7" stroke-opacity="1"></use></g></g></g></g></svg>